<svg width="200" height="80" viewBox="0 0 200 80" xmlns="http://www.w3.org/2000/svg">
  <!-- Zig-Zag Ticket Shape -->
  <path d="M10 0 L190 0 L200 10 L190 20 L200 30 L190 40 L200 50 L190 60 L200 70 L190 80 L10 80 L0 70 L10 60 L0 50 L10 40 L0 30 L10 20 L0 10 Z" fill="#9d3bff" stroke="#0c0c0c" stroke-width="4" stroke-linejoin="round"/>
  
  <!-- Dashed Line -->
  <line x1="140" y1="5" x2="140" y2="75" stroke="rgba(0,0,0,0.4)" stroke-width="2" stroke-dasharray="4,4"/>
  
  <!-- Globe Icon (Simplified) -->
  <g transform="translate(155, 25) scale(0.8)" stroke="#0c0c0c" fill="none" stroke-width="2">
    <circle cx="15" cy="15" r="12"/>
    <line x1="3" y1="15" x2="27" y2="15"/>
    <path d="M15 3 Q22 15 15 27 Q8 15 15 3 Z"/>
  </g>

  <!-- Text Placeholder (Not used, we will overlay text in HTML for better control) -->
</svg>
